%TF.GenerationSoftware,KiCad,Pcbnew,7.0.2*%
%TF.CreationDate,2023-09-15T20:55:41+09:00*%
%TF.ProjectId,namePlatePCB,6e616d65-506c-4617-9465-5043422e6b69,rev?*%
%TF.SameCoordinates,Original*%
%TF.FileFunction,Legend,Bot*%
%TF.FilePolarity,Positive*%
%FSLAX46Y46*%
G04 Gerber Fmt 4.6, Leading zero omitted, Abs format (unit mm)*
G04 Created by KiCad (PCBNEW 7.0.2) date 2023-09-15 20:55:41*
%MOMM*%
%LPD*%
G01*
G04 APERTURE LIST*
%ADD10C,0.200000*%
G04 APERTURE END LIST*
D10*
X184785714Y-99132857D02*
X184785714Y-96132857D01*
X183500000Y-99132857D02*
X183500000Y-97561428D01*
X183500000Y-97561428D02*
X183642857Y-97275714D01*
X183642857Y-97275714D02*
X183928571Y-97132857D01*
X183928571Y-97132857D02*
X184357142Y-97132857D01*
X184357142Y-97132857D02*
X184642857Y-97275714D01*
X184642857Y-97275714D02*
X184785714Y-97418571D01*
X182499999Y-97132857D02*
X181357142Y-97132857D01*
X182071428Y-96132857D02*
X182071428Y-98704285D01*
X182071428Y-98704285D02*
X181928571Y-98990000D01*
X181928571Y-98990000D02*
X181642856Y-99132857D01*
X181642856Y-99132857D02*
X181357142Y-99132857D01*
X180785713Y-97132857D02*
X179642856Y-97132857D01*
X180357142Y-96132857D02*
X180357142Y-98704285D01*
X180357142Y-98704285D02*
X180214285Y-98990000D01*
X180214285Y-98990000D02*
X179928570Y-99132857D01*
X179928570Y-99132857D02*
X179642856Y-99132857D01*
X178642856Y-97132857D02*
X178642856Y-100132857D01*
X178642856Y-97275714D02*
X178357142Y-97132857D01*
X178357142Y-97132857D02*
X177785713Y-97132857D01*
X177785713Y-97132857D02*
X177499999Y-97275714D01*
X177499999Y-97275714D02*
X177357142Y-97418571D01*
X177357142Y-97418571D02*
X177214284Y-97704285D01*
X177214284Y-97704285D02*
X177214284Y-98561428D01*
X177214284Y-98561428D02*
X177357142Y-98847142D01*
X177357142Y-98847142D02*
X177499999Y-98990000D01*
X177499999Y-98990000D02*
X177785713Y-99132857D01*
X177785713Y-99132857D02*
X178357142Y-99132857D01*
X178357142Y-99132857D02*
X178642856Y-98990000D01*
X176071427Y-98990000D02*
X175785713Y-99132857D01*
X175785713Y-99132857D02*
X175214284Y-99132857D01*
X175214284Y-99132857D02*
X174928570Y-98990000D01*
X174928570Y-98990000D02*
X174785713Y-98704285D01*
X174785713Y-98704285D02*
X174785713Y-98561428D01*
X174785713Y-98561428D02*
X174928570Y-98275714D01*
X174928570Y-98275714D02*
X175214284Y-98132857D01*
X175214284Y-98132857D02*
X175642856Y-98132857D01*
X175642856Y-98132857D02*
X175928570Y-97990000D01*
X175928570Y-97990000D02*
X176071427Y-97704285D01*
X176071427Y-97704285D02*
X176071427Y-97561428D01*
X176071427Y-97561428D02*
X175928570Y-97275714D01*
X175928570Y-97275714D02*
X175642856Y-97132857D01*
X175642856Y-97132857D02*
X175214284Y-97132857D01*
X175214284Y-97132857D02*
X174928570Y-97275714D01*
X173499999Y-98847142D02*
X173357142Y-98990000D01*
X173357142Y-98990000D02*
X173499999Y-99132857D01*
X173499999Y-99132857D02*
X173642856Y-98990000D01*
X173642856Y-98990000D02*
X173499999Y-98847142D01*
X173499999Y-98847142D02*
X173499999Y-99132857D01*
X173499999Y-97275714D02*
X173357142Y-97418571D01*
X173357142Y-97418571D02*
X173499999Y-97561428D01*
X173499999Y-97561428D02*
X173642856Y-97418571D01*
X173642856Y-97418571D02*
X173499999Y-97275714D01*
X173499999Y-97275714D02*
X173499999Y-97561428D01*
X169928571Y-95990000D02*
X172499999Y-99847142D01*
X166785714Y-95990000D02*
X169357142Y-99847142D01*
X165785714Y-97132857D02*
X165785714Y-100132857D01*
X165785714Y-97275714D02*
X165500000Y-97132857D01*
X165500000Y-97132857D02*
X164928571Y-97132857D01*
X164928571Y-97132857D02*
X164642857Y-97275714D01*
X164642857Y-97275714D02*
X164500000Y-97418571D01*
X164500000Y-97418571D02*
X164357142Y-97704285D01*
X164357142Y-97704285D02*
X164357142Y-98561428D01*
X164357142Y-98561428D02*
X164500000Y-98847142D01*
X164500000Y-98847142D02*
X164642857Y-98990000D01*
X164642857Y-98990000D02*
X164928571Y-99132857D01*
X164928571Y-99132857D02*
X165500000Y-99132857D01*
X165500000Y-99132857D02*
X165785714Y-98990000D01*
X161785714Y-99132857D02*
X161785714Y-97561428D01*
X161785714Y-97561428D02*
X161928571Y-97275714D01*
X161928571Y-97275714D02*
X162214285Y-97132857D01*
X162214285Y-97132857D02*
X162785714Y-97132857D01*
X162785714Y-97132857D02*
X163071428Y-97275714D01*
X161785714Y-98990000D02*
X162071428Y-99132857D01*
X162071428Y-99132857D02*
X162785714Y-99132857D01*
X162785714Y-99132857D02*
X163071428Y-98990000D01*
X163071428Y-98990000D02*
X163214285Y-98704285D01*
X163214285Y-98704285D02*
X163214285Y-98418571D01*
X163214285Y-98418571D02*
X163071428Y-98132857D01*
X163071428Y-98132857D02*
X162785714Y-97990000D01*
X162785714Y-97990000D02*
X162071428Y-97990000D01*
X162071428Y-97990000D02*
X161785714Y-97847142D01*
X159071428Y-97132857D02*
X159071428Y-99561428D01*
X159071428Y-99561428D02*
X159214285Y-99847142D01*
X159214285Y-99847142D02*
X159357142Y-99990000D01*
X159357142Y-99990000D02*
X159642856Y-100132857D01*
X159642856Y-100132857D02*
X160071428Y-100132857D01*
X160071428Y-100132857D02*
X160357142Y-99990000D01*
X159071428Y-98990000D02*
X159357142Y-99132857D01*
X159357142Y-99132857D02*
X159928570Y-99132857D01*
X159928570Y-99132857D02*
X160214285Y-98990000D01*
X160214285Y-98990000D02*
X160357142Y-98847142D01*
X160357142Y-98847142D02*
X160499999Y-98561428D01*
X160499999Y-98561428D02*
X160499999Y-97704285D01*
X160499999Y-97704285D02*
X160357142Y-97418571D01*
X160357142Y-97418571D02*
X160214285Y-97275714D01*
X160214285Y-97275714D02*
X159928570Y-97132857D01*
X159928570Y-97132857D02*
X159357142Y-97132857D01*
X159357142Y-97132857D02*
X159071428Y-97275714D01*
X156499999Y-98990000D02*
X156785713Y-99132857D01*
X156785713Y-99132857D02*
X157357142Y-99132857D01*
X157357142Y-99132857D02*
X157642856Y-98990000D01*
X157642856Y-98990000D02*
X157785713Y-98704285D01*
X157785713Y-98704285D02*
X157785713Y-97561428D01*
X157785713Y-97561428D02*
X157642856Y-97275714D01*
X157642856Y-97275714D02*
X157357142Y-97132857D01*
X157357142Y-97132857D02*
X156785713Y-97132857D01*
X156785713Y-97132857D02*
X156499999Y-97275714D01*
X156499999Y-97275714D02*
X156357142Y-97561428D01*
X156357142Y-97561428D02*
X156357142Y-97847142D01*
X156357142Y-97847142D02*
X157785713Y-98132857D01*
X155214284Y-98990000D02*
X154928570Y-99132857D01*
X154928570Y-99132857D02*
X154357141Y-99132857D01*
X154357141Y-99132857D02*
X154071427Y-98990000D01*
X154071427Y-98990000D02*
X153928570Y-98704285D01*
X153928570Y-98704285D02*
X153928570Y-98561428D01*
X153928570Y-98561428D02*
X154071427Y-98275714D01*
X154071427Y-98275714D02*
X154357141Y-98132857D01*
X154357141Y-98132857D02*
X154785713Y-98132857D01*
X154785713Y-98132857D02*
X155071427Y-97990000D01*
X155071427Y-97990000D02*
X155214284Y-97704285D01*
X155214284Y-97704285D02*
X155214284Y-97561428D01*
X155214284Y-97561428D02*
X155071427Y-97275714D01*
X155071427Y-97275714D02*
X154785713Y-97132857D01*
X154785713Y-97132857D02*
X154357141Y-97132857D01*
X154357141Y-97132857D02*
X154071427Y-97275714D01*
X152642856Y-98847142D02*
X152499999Y-98990000D01*
X152499999Y-98990000D02*
X152642856Y-99132857D01*
X152642856Y-99132857D02*
X152785713Y-98990000D01*
X152785713Y-98990000D02*
X152642856Y-98847142D01*
X152642856Y-98847142D02*
X152642856Y-99132857D01*
X151214285Y-97132857D02*
X151214285Y-99132857D01*
X151214285Y-97418571D02*
X151071428Y-97275714D01*
X151071428Y-97275714D02*
X150785713Y-97132857D01*
X150785713Y-97132857D02*
X150357142Y-97132857D01*
X150357142Y-97132857D02*
X150071428Y-97275714D01*
X150071428Y-97275714D02*
X149928571Y-97561428D01*
X149928571Y-97561428D02*
X149928571Y-99132857D01*
X147214285Y-98990000D02*
X147499999Y-99132857D01*
X147499999Y-99132857D02*
X148071427Y-99132857D01*
X148071427Y-99132857D02*
X148357142Y-98990000D01*
X148357142Y-98990000D02*
X148499999Y-98847142D01*
X148499999Y-98847142D02*
X148642856Y-98561428D01*
X148642856Y-98561428D02*
X148642856Y-97704285D01*
X148642856Y-97704285D02*
X148499999Y-97418571D01*
X148499999Y-97418571D02*
X148357142Y-97275714D01*
X148357142Y-97275714D02*
X148071427Y-97132857D01*
X148071427Y-97132857D02*
X147499999Y-97132857D01*
X147499999Y-97132857D02*
X147214285Y-97275714D01*
X145928570Y-99132857D02*
X145928570Y-96132857D01*
X144642856Y-99132857D02*
X144642856Y-97561428D01*
X144642856Y-97561428D02*
X144785713Y-97275714D01*
X144785713Y-97275714D02*
X145071427Y-97132857D01*
X145071427Y-97132857D02*
X145499998Y-97132857D01*
X145499998Y-97132857D02*
X145785713Y-97275714D01*
X145785713Y-97275714D02*
X145928570Y-97418571D01*
X142785712Y-99132857D02*
X143071427Y-98990000D01*
X143071427Y-98990000D02*
X143214284Y-98704285D01*
X143214284Y-98704285D02*
X143214284Y-96132857D01*
X140357141Y-99132857D02*
X140357141Y-97561428D01*
X140357141Y-97561428D02*
X140499998Y-97275714D01*
X140499998Y-97275714D02*
X140785712Y-97132857D01*
X140785712Y-97132857D02*
X141357141Y-97132857D01*
X141357141Y-97132857D02*
X141642855Y-97275714D01*
X140357141Y-98990000D02*
X140642855Y-99132857D01*
X140642855Y-99132857D02*
X141357141Y-99132857D01*
X141357141Y-99132857D02*
X141642855Y-98990000D01*
X141642855Y-98990000D02*
X141785712Y-98704285D01*
X141785712Y-98704285D02*
X141785712Y-98418571D01*
X141785712Y-98418571D02*
X141642855Y-98132857D01*
X141642855Y-98132857D02*
X141357141Y-97990000D01*
X141357141Y-97990000D02*
X140642855Y-97990000D01*
X140642855Y-97990000D02*
X140357141Y-97847142D01*
X138928569Y-99132857D02*
X138928569Y-96132857D01*
X138928569Y-97275714D02*
X138642855Y-97132857D01*
X138642855Y-97132857D02*
X138071426Y-97132857D01*
X138071426Y-97132857D02*
X137785712Y-97275714D01*
X137785712Y-97275714D02*
X137642855Y-97418571D01*
X137642855Y-97418571D02*
X137499997Y-97704285D01*
X137499997Y-97704285D02*
X137499997Y-98561428D01*
X137499997Y-98561428D02*
X137642855Y-98847142D01*
X137642855Y-98847142D02*
X137785712Y-98990000D01*
X137785712Y-98990000D02*
X138071426Y-99132857D01*
X138071426Y-99132857D02*
X138642855Y-99132857D01*
X138642855Y-99132857D02*
X138928569Y-98990000D01*
X136214283Y-98847142D02*
X136071426Y-98990000D01*
X136071426Y-98990000D02*
X136214283Y-99132857D01*
X136214283Y-99132857D02*
X136357140Y-98990000D01*
X136357140Y-98990000D02*
X136214283Y-98847142D01*
X136214283Y-98847142D02*
X136214283Y-99132857D01*
X134785712Y-97132857D02*
X134785712Y-99132857D01*
X134785712Y-97418571D02*
X134642855Y-97275714D01*
X134642855Y-97275714D02*
X134357140Y-97132857D01*
X134357140Y-97132857D02*
X133928569Y-97132857D01*
X133928569Y-97132857D02*
X133642855Y-97275714D01*
X133642855Y-97275714D02*
X133499998Y-97561428D01*
X133499998Y-97561428D02*
X133499998Y-99132857D01*
X130928569Y-98990000D02*
X131214283Y-99132857D01*
X131214283Y-99132857D02*
X131785712Y-99132857D01*
X131785712Y-99132857D02*
X132071426Y-98990000D01*
X132071426Y-98990000D02*
X132214283Y-98704285D01*
X132214283Y-98704285D02*
X132214283Y-97561428D01*
X132214283Y-97561428D02*
X132071426Y-97275714D01*
X132071426Y-97275714D02*
X131785712Y-97132857D01*
X131785712Y-97132857D02*
X131214283Y-97132857D01*
X131214283Y-97132857D02*
X130928569Y-97275714D01*
X130928569Y-97275714D02*
X130785712Y-97561428D01*
X130785712Y-97561428D02*
X130785712Y-97847142D01*
X130785712Y-97847142D02*
X132214283Y-98132857D01*
X129928568Y-97132857D02*
X128785711Y-97132857D01*
X129499997Y-96132857D02*
X129499997Y-98704285D01*
X129499997Y-98704285D02*
X129357140Y-98990000D01*
X129357140Y-98990000D02*
X129071425Y-99132857D01*
X129071425Y-99132857D02*
X128785711Y-99132857D01*
X125642854Y-95990000D02*
X128214282Y-99847142D01*
M02*
